{  "asset": {    "version": "2.0",    "generator": "THREE.GLTFExporter r167"  },  "scenes": [    {      "name": "AuxScene",      "nodes": [        5      ]    }  ],  "scene": 0,  "nodes": [    {      "mesh": 0    },    {      "mesh": 1    },    {      "mesh": 2    },    {      "mesh": 3    },    {      "mesh": 4    },    {      "children": [        0,        1,        2,        3,        4      ]    }  ],  "bufferViews": [    {      "buffer": 0,      "byteOffset": 0,      "byteLength": 108432,      "target": 34962,      "byteStride": 12    },    {      "buffer": 0,      "byteOffset": 108432,      "byteLength": 108432,      "target": 34962,      "byteStride": 12    },    {      "buffer": 0,      "byteOffset": 216864,      "byteLength": 9552,      "target": 34963    },    {      "buffer": 0,      "byteOffset": 226416,      "byteLength": 5352,      "target": 34963    },    {      "buffer": 0,      "byteOffset": 231768,      "byteLength": 576,      "target": 34963    },    {      "buffer": 0,      "byteOffset": 232344,      "byteLength": 2592,      "target": 34963    },    {      "buffer": 0,      "byteOffset": 234936,      "byteLength": 4464,      "target": 34962,      "byteStride": 12    },    {      "buffer": 0,      "byteOffset": 239400,      "byteLength": 4464,      "target": 34962,      "byteStride": 12    },    {      "buffer": 0,      "byteOffset": 243864,      "byteLength": 4464,      "target": 34962,      "byteStride": 12    },    {      "buffer": 0,      "byteOffset": 248328,      "byteLength": 4464,      "target": 34962,      "byteStride": 12    },    {      "buffer": 0,      "byteOffset": 252792,      "byteLength": 4464,      "target": 34962,      "byteStride": 12    },    {      "buffer": 0,      "byteOffset": 257256,      "byteLength": 4464,      "target": 34962,      "byteStride": 12    },    {      "buffer": 0,      "byteOffset": 261720,      "byteLength": 52848,      "target": 34962,      "byteStride": 12    },    {      "buffer": 0,      "byteOffset": 314568,      "byteLength": 52848,      "target": 34962,      "byteStride": 12    },    {      "buffer": 0,      "byteOffset": 367416,      "byteLength": 4968,      "target": 34963    },    {      "buffer": 0,      "byteOffset": 372384,      "byteLength": 3840,      "target": 34963    }  ],  "buffers": [    {      "byteLength": 376224,      "uri": "data:application/octet-stream;base64,"    }  ],  "accessors": [    {      "bufferView": 0,      "componentType": 5126,      "count": 9036,      "max": [        15.922464370727539,        19.615280151367188,        7.374986171722412      ],      "min": [        -11.161038398742676,        -19.615280151367188,        -28.887887954711914      ],      "type": "VEC3"    },    {      "bufferView": 1,      "componentType": 5126,      "count": 9036,      "max": [        1,        1,        0.9288308620452881      ],      "min": [        -1,        -1,        -1      ],      "type": "VEC3"    },    {      "bufferView": 2,      "componentType": 5123,      "count": 4776,      "max": [        4775      ],      "min": [        0      ],      "type": "SCALAR"    },    {      "bufferView": 3,      "componentType": 5123,      "count": 2676,      "max": [        7451      ],      "min": [        4776      ],      "type": "SCALAR"    },    {      "bufferView": 4,      "componentType": 5123,      "count": 288,      "max": [        7739      ],      "min": [        7452      ],      "type": "SCALAR"    },    {      "bufferView": 5,      "componentType": 5123,      "count": 1296,      "max": [        9035      ],      "min": [        7740      ],      "type": "SCALAR"    },    {      "bufferView": 6,      "componentType": 5126,      "count": 372,      "max": [        -7.667807579040527,        -13.387421607971191,        8.141660690307617      ],      "min": [        -11.404121398925781,        -17.123735427856445,        -28.948400497436523      ],      "type": "VEC3"    },    {      "bufferView": 7,      "componentType": 5126,      "count": 372,      "max": [        0.7332987189292908,        0.7333292365074158,        0.6914578676223755      ],      "min": [        -0.7332987189292908,        -0.7332987189292908,        -0.6798913478851318      ],      "type": "VEC3"    },    {      "bufferView": 8,      "componentType": 5126,      "count": 372,      "max": [        -7.667807579040527,        -8.931619644165039,        13.458725929260254      ],      "min": [        -11.404121398925781,        -12.667932510375977,        -28.948400497436523      ],      "type": "VEC3"    },    {      "bufferView": 9,      "componentType": 5126,      "count": 372,      "max": [        0.7326273322105408,        0.7326273322105408,        0.6907559633255005      ],      "min": [        -0.7326273322105408,        -0.7326273322105408,        -0.6806237697601318      ],      "type": "VEC3"    },    {      "bufferView": 10,      "componentType": 5126,      "count": 372,      "max": [        -7.667807579040527,        -4.478404521942139,        18.77580451965332      ],      "min": [        -11.404121398925781,        -8.214717864990234,        -28.948400497436523      ],      "type": "VEC3"    },    {      "bufferView": 11,      "componentType": 5126,      "count": 372,      "max": [        0.7321085333824158,        0.7321085333824158,        0.6901760697364807      ],      "min": [        -0.7321085333824158,        -0.7321085333824158,        -0.6812036633491516      ],      "type": "VEC3"    },    {      "bufferView": 12,      "componentType": 5126,      "count": 4404,      "max": [        -9.115535736083984,        5.038088798522949,        28.94839859008789      ],      "min": [        -15.922466278076172,        -1.7688403129577637,        -28.735206604003906      ],      "type": "VEC3"    },    {      "bufferView": 13,      "componentType": 5126,      "count": 4404,      "max": [        1,        1,        0.729850172996521      ],      "min": [        -1,        -1,        -0.6810510754585266      ],      "type": "VEC3"    },    {      "bufferView": 14,      "componentType": 5123,      "count": 2484,      "max": [        2483      ],      "min": [        0      ],      "type": "SCALAR"    },    {      "bufferView": 15,      "componentType": 5123,      "count": 1920,      "max": [        4403      ],      "min": [        2484      ],      "type": "SCALAR"    }  ],  "materials": [    {      "pbrMetallicRoughness": {        "baseColorFactor": [          0.6038273388475408,          0.047044477811682396,          0.012694878469061331,          1        ],        "metallicFactor": 0.5,        "roughnessFactor": 0.5      },      "doubleSided": true,      "name": "mat0"    },    {      "pbrMetallicRoughness": {        "baseColorFactor": [          0.6038273388475408,          0.6038273388475408,          0.6038273388475408,          1        ],        "metallicFactor": 0.5,        "roughnessFactor": 0.5      },      "name": "mat1"    },    {      "pbrMetallicRoughness": {        "baseColorFactor": [          0.6038273388475408,          0.6038273388475408,          0.6038273388475408,          1        ],        "metallicFactor": 0.5,        "roughnessFactor": 0.5      },      "name": "mat2"    },    {      "pbrMetallicRoughness": {        "baseColorFactor": [          0.6038273388475408,          0.6038273388475408,          0.6038273388475408,          1        ],        "metallicFactor": 0.5,        "roughnessFactor": 0.5      },      "name": "mat3"    },    {      "pbrMetallicRoughness": {        "baseColorFactor": [          0.6038273388475408,          0.6038273388475408,          0.6038273388475408,          1        ],        "metallicFactor": 0.5,        "roughnessFactor": 0.5      },      "name": "mat4"    },    {      "pbrMetallicRoughness": {        "baseColorFactor": [          0.6038273388475408,          0.6038273388475408,          0.6038273388475408,          1        ],        "metallicFactor": 0.5,        "roughnessFactor": 0.5      },      "name": "mat5"    }  ],  "meshes": [    {      "primitives": [        {          "mode": 4,          "attributes": {            "POSITION": 0,            "NORMAL": 1          },          "indices": 2,          "material": 0        },        {          "mode": 4,          "attributes": {            "POSITION": 0,            "NORMAL": 1          },          "indices": 3,          "material": 1        },        {          "mode": 4,          "attributes": {            "POSITION": 0,            "NORMAL": 1          },          "indices": 4,          "material": 2        },        {          "mode": 4,          "attributes": {            "POSITION": 0,            "NORMAL": 1          },          "indices": 5,          "material": 3        }      ]    },    {      "primitives": [        {          "mode": 4,          "attributes": {            "POSITION": 6,            "NORMAL": 7          },          "material": 0        }      ]    },    {      "primitives": [        {          "mode": 4,          "attributes": {            "POSITION": 8,            "NORMAL": 9          },          "material": 0        }      ]    },    {      "primitives": [        {          "mode": 4,          "attributes": {            "POSITION": 10,            "NORMAL": 11          },          "material": 0        }      ]    },    {      "primitives": [        {          "mode": 4,          "attributes": {            "POSITION": 12,            "NORMAL": 13          },          "indices": 14,          "material": 4        },        {          "mode": 4,          "attributes": {            "POSITION": 12,            "NORMAL": 13          },          "indices": 15,          "material": 5        }      ]    }  ]}